<svg xmlns="http://www.w3.org/2000/svg" viewBox="0 0 128 128" role="img" aria-label="BookCircle icon">
  <defs>
    <linearGradient id="bg" x1="16" x2="112" y1="12" y2="116" gradientUnits="userSpaceOnUse">
      <stop offset="0" stop-color="#174b4c"/>
      <stop offset="1" stop-color="#0f3d3e"/>
    </linearGradient>
    <linearGradient id="ring" x1="28" x2="100" y1="28" y2="100" gradientUnits="userSpaceOnUse">
      <stop offset="0" stop-color="#f7c35b"/>
      <stop offset="1" stop-color="#f59e0b"/>
    </linearGradient>
  </defs>
  <rect width="128" height="128" rx="30" fill="url(#bg)"/>
  <circle cx="64" cy="64" r="42" fill="none" stroke="url(#ring)" stroke-width="8"/>
  <path d="M42 35h19c7.7 0 14 6.3 14 14v38c-3.4-3.5-8.2-5.5-13.2-5.5H42z" fill="#fff9ef"/>
  <path d="M86 35H67c-7.7 0-14 6.3-14 14v38c3.4-3.5 8.2-5.5 13.2-5.5H86z" fill="#f3ead6"/>
  <path d="M64 43v43" stroke="#d7c8aa" stroke-width="3" stroke-linecap="round"/>
  <path d="M48 48h11" stroke="#d7c8aa" stroke-width="3" stroke-linecap="round"/>
  <path d="M69 48h11" stroke="#cfbf9d" stroke-width="3" stroke-linecap="round"/>
  <path d="M48 57h9" stroke="#d7c8aa" stroke-width="3" stroke-linecap="round"/>
  <path d="M71 57h9" stroke="#cfbf9d" stroke-width="3" stroke-linecap="round"/>
  <circle cx="92" cy="92" r="12" fill="#f59e0b"/>
  <path d="M88.5 92.5l2.4 2.4 4.8-5.3" fill="none" stroke="#ffffff" stroke-linecap="round" stroke-linejoin="round" stroke-width="3"/>
</svg>
